PathFileType	4	(x/y/z)	S08_P20_T11
DataRate	CameraRate	NumFrames	NumMarkers	Units	OrigDataRate	OrigDataStartFrame	OrigNumFrames
240	240	4	51	mm	240	290	386
Frame#	Time	Sternum			R.Acromium			L.Acromium			Top.Head			R.ASIS			L.ASIS			R.PSIS			L.PSIS			R.Great.Tro			L.Great.Tro			R.Iliac.Crest			L.Iliac.Crest			V.Sacral			R.Thigh.Upper.Post			R.Thigh.Lower.Ant			R.Thigh.Lower.Post			R.Thigh.Upper.Ant			R.Knee.Lat			R.Knee.Med			R.Shank.Upper.Post			R.Shank.Lower.Ant			R.Shank.Lower.Post			R.Shank.Upper.Ant			R.Ankle.Lat			R.Ankle.Med			R.Heel.Upper			R.Heel.Med			R.Heel.Lat			R.Toe.Lat			R.Toe.Med			R.Toe.Tip			L.Thigh.Upper.Post			L.Thigh.Lower.Ant			L.Thigh.Lower.Post			L.Thigh.Upper.Ant			L.Knee.Lat			L.Knee.Med			L.Shank.Upper.Post			L.Shank.Lower.Ant			L.Shank.Lower.Post			L.Shank.Upper.Ant			L.Ankle.Lat			L.Ankle.Med			L.Heel.Upper			L.Heel.Med			L.Heel.Lat			L.Toe.Lat			L.Toe.Med			L.Toe.Tip			Cervical.Spine			Back			
		X1	Y1	Z1	X2	Y2	Z2	X3	Y3	Z3	X4	Y4	Z4	X5	Y5	Z5	X6	Y6	Z6	X7	Y7	Z7	X8	Y8	Z8	X9	Y9	Z9	X10	Y10	Z10	X11	Y11	Z11	X12	Y12	Z12	X13	Y13	Z13	X14	Y14	Z14	X15	Y15	Z15	X16	Y16	Z16	X17	Y17	Z17	X18	Y18	Z18	X19	Y19	Z19	X20	Y20	Z20	X21	Y21	Z21	X22	Y22	Z22	X23	Y23	Z23	X24	Y24	Z24	X25	Y25	Z25	X26	Y26	Z26	X27	Y27	Z27	X28	Y28	Z28	X29	Y29	Z29	X30	Y30	Z30	X31	Y31	Z31	X32	Y32	Z32	X33	Y33	Z33	X34	Y34	Z34	X35	Y35	Z35	X36	Y36	Z36	X37	Y37	Z37	X38	Y38	Z38	X39	Y39	Z39	X40	Y40	Z40	X41	Y41	Z41	X42	Y42	Z42	X43	Y43	Z43	X44	Y44	Z44	X45	Y45	Z45	X46	Y46	Z46	X47	Y47	Z47	X48	Y48	Z48	X49	Y49	Z49	X50	Y50	Z50	X51	Y51	Z51	

290	1.2042	268.13	1234.7	297.55	151.73	1471.3	477.28	132.55	1497.3	141.57	148.18	1790.8	331.66	237.43	1019.8	405.16	236.68	1027.9	175.5	36.094	1042.1	332.87	39.027	1049.6	239.76	179.54	906.86	474.08	150.12	919.34	106.86	140.92	1084.7	453.6	142.01	1108	146.19	21.44	1005	283.52	224.49	708.07	463.48	330.4	637.66	440.02	259.56	624.94	446.78	301.14	726.83	456.99	317.96	536.41	437.09	305.34	534.57	304.45	165.13	431.41	445.95	169.37	342.94	425.96	113.93	373.57	440.77	221.52	401.45	433.9	0.72806	253.7	411.39	34.254	240.72	334.24	-55.775	258.71	362.16	-65.125	232.14	334.34	-71.251	238.53	396.01	NaN	NaN	NaN	68.576	105.47	328.98	125.14	74.457	377.06	156.27	702.76	130.19	252.38	624.73	156	183.88	617.98	151.06	228.93	707.09	129.41	209.37	521.59	173.6	211.27	525.18	297.88	143.65	343.24	175.02	205.2	253.03	202.44	136.18	271.15	192.84	206.9	327.82	184.12	145.91	101.11	213.69	166.62	106.13	300.8	90.983	76.799	261.27	102.75	41.739	291.65	99.527	49.336	227.93	276.22	39.864	198.55	293.1	41.801	315.05	357.41	58.529	267.52	75.858	1526.8	306.85	32.888	1244.7	310.69
291	1.2083	273.14	1235.5	297.48	156.88	1472	477.16	137.76	1498.1	141.53	153.65	1791.4	331.65	242.39	1020.7	404.99	241.69	1028.4	175.36	41.092	1042.8	332.79	44.064	1050.2	239.67	184.98	907.94	474.06	154.93	919.81	106.86	145.88	1085.6	453.47	147.08	1108.6	146.04	26.493	1005.7	283.47	231.97	709.46	463.59	338.47	640.11	439.56	267.81	626.67	446.74	308.37	728.96	456.67	326.82	538.59	436.61	314	536.75	304.15	175.34	431.29	445.55	181.08	342.88	425.83	125.13	372.65	440.58	232.22	402.2	433.61	13.893	250.72	411.31	47.64	238.27	334.19	-43.011	253.99	362.11	-51.677	227.01	334.49	-57.855	233.6	396.13	NaN	NaN	NaN	85.406	103.98	329.7	142.84	74.836	377.89	159.58	703.38	130.07	255.06	624.63	156.08	186.5	618.35	150.99	232.18	707.16	129.58	211.1	521.64	173.67	213.03	525.21	297.99	144.56	343.49	175.08	205.82	253.07	202.51	136.89	271.43	192.91	207.75	327.88	184.17	146.1	101.29	213.78	166.56	106.2	300.84	91.085	76.922	261.32	102.75	41.825	291.67	99.584	49.471	227.95	276.26	39.84	198.57	293.15	41.654	315.04	357.51	58.292	267.52	81.041	1527.5	306.73	37.906	1245.5	310.45
292	1.2125	278.16	1236.2	297.41	162.03	1472.7	477.04	142.98	1498.9	141.5	159.12	1792	331.64	247.35	1021.6	404.82	246.69	1029	175.22	46.084	1043.5	332.73	49.093	1050.8	239.6	190.42	908.99	474.06	159.75	920.23	106.88	150.85	1086.5	453.35	152.14	1109.1	145.91	31.542	1006.3	283.45	239.37	710.82	463.72	346.43	642.5	439.11	275.96	628.37	446.71	315.51	731.05	456.35	335.52	540.72	436.11	322.47	538.9	303.87	185.49	431.03	445.14	192.8	342.7	425.7	136.33	371.55	440.38	242.87	402.85	433.32	27.193	247.51	411.24	61.172	235.61	334.14	-30.057	249.03	362.06	-38.01	221.66	334.63	-44.265	228.42	396.23	NaN	NaN	NaN	102.42	102.41	330.39	160.67	75.156	378.69	162.92	703.99	129.94	257.74	624.53	156.17	189.11	618.71	150.93	235.45	707.22	129.76	212.82	521.69	173.74	214.75	525.24	298.1	145.47	343.73	175.15	206.45	253.11	202.59	137.6	271.71	192.97	208.59	327.92	184.23	146.3	101.48	213.87	166.49	106.25	300.88	91.19	77.041	261.37	102.78	41.903	291.71	99.642	49.605	227.97	276.29	39.821	198.59	293.21	41.505	315.03	357.6	58.059	267.51	86.221	1528.1	306.62	42.926	1246.2	310.21
293	1.2167	283.17	1236.9	297.33	167.19	1473.3	476.91	148.2	1499.7	141.47	164.58	1792.6	331.62	252.31	1022.5	404.66	251.69	1029.5	175.09	51.072	1044.1	332.68	54.115	1051.4	239.54	195.86	910.01	474.08	164.6	920.61	106.92	155.82	1087.3	453.24	157.19	1109.5	145.79	36.587	1006.9	283.44	246.68	712.14	463.88	354.26	644.83	438.66	283.98	630.03	446.71	322.58	733.09	456.04	344.07	542.78	435.62	330.75	540.99	303.6	195.59	430.61	444.73	204.53	342.41	425.55	147.53	370.29	440.17	253.46	403.4	433.03	40.633	244.09	411.17	74.854	232.77	334.09	-16.904	243.84	362	-24.118	216.1	334.75	-30.476	223.01	396.31	NaN	NaN	NaN	119.62	100.77	331.06	178.63	75.422	379.45	166.27	704.6	129.81	260.44	624.42	156.29	191.73	619.06	150.88	238.73	707.27	129.95	214.54	521.73	173.81	216.42	525.27	298.22	146.39	343.95	175.22	207.07	253.15	202.68	138.32	271.99	193.02	209.43	327.97	184.29	146.5	101.67	213.96	166.41	106.3	300.92	91.296	77.157	261.43	102.82	41.973	291.75	99.7	49.74	228	276.33	39.806	198.61	293.25	41.352	315.01	357.69	57.828	267.52	91.401	1528.7	306.51	47.947	1247	309.97
